<svg width="18" height="51" viewBox="0 0 18 51" fill="none" xmlns="http://www.w3.org/2000/svg">
<mask id="path-1-inside-1_46336_1189" fill="white">
<path d="M2.13594 51C7.04886 48.5587 11.1455 44.8211 13.9509 40.2205C16.7562 35.6199 18.1555 30.3447 17.9863 25.0065C17.8171 19.6683 16.0865 14.4859 12.995 10.0599C9.90361 5.63399 5.57799 2.14587 0.519694 0L0 1.14515C4.8344 3.19605 8.96856 6.52976 11.9232 10.7598C14.8778 14.9898 16.5318 19.9429 16.6935 25.0448C16.8552 30.1467 15.5179 35.1884 12.8367 39.5854C10.1555 43.9824 6.24017 47.5546 1.54471 49.8878L2.13594 51Z"/>
</mask>
<path d="M2.13594 51L-4.04505 54.2856L-0.848281 60.2995L5.25092 57.2687L2.13594 51ZM0.519694 0L3.25347 -6.4441L-3.03271 -9.11088L-5.85461 -2.89279L0.519694 0ZM0 1.14515L-6.3743 -1.74764L-9.33977 4.7868L-2.73377 7.58926L0 1.14515ZM1.54471 49.8878L-1.57027 43.619L-8.01324 46.8206L-4.63629 53.1734L1.54471 49.8878ZM5.25092 57.2687C11.3234 54.2512 16.4217 49.614 19.9274 43.8648L7.97436 36.5761C5.86932 40.0283 2.77428 42.8662 -0.979038 44.7313L5.25092 57.2687ZM19.9274 43.8648C23.4347 38.1131 25.1955 31.4962 24.9828 24.7848L10.9898 25.2282C11.1155 29.1931 10.0778 33.1266 7.97436 36.5761L19.9274 43.8648ZM24.9828 24.7848C24.7701 18.0735 22.594 11.5781 18.7338 6.05153L7.25634 14.0683C9.57899 17.3936 10.8641 21.2631 10.9898 25.2282L24.9828 24.7848ZM18.7338 6.05153C14.8753 0.527494 9.49957 -3.79433 3.25347 -6.4441L-2.21408 6.4441C1.65641 8.08608 4.9319 10.7405 7.25634 14.0683L18.7338 6.05153ZM-5.85461 -2.89279L-6.3743 -1.74764L6.3743 4.03794L6.894 2.89279L-5.85461 -2.89279ZM-2.73377 7.58926C0.912824 9.13625 3.99685 11.6363 6.18445 14.7682L17.6619 6.75141C13.9403 1.42327 8.75598 -2.74416 2.73377 -5.29895L-2.73377 7.58926ZM6.18445 14.7682C8.37027 17.8976 9.57882 21.5377 9.69699 25.2665L23.69 24.8231C23.4848 18.3481 21.3853 12.0821 17.6619 6.75141L6.18445 14.7682ZM9.69699 25.2665C9.81515 28.9951 8.83946 32.6951 6.86017 35.941L18.8132 43.2297C22.1963 37.6817 23.8952 31.2983 23.69 24.8231L9.69699 25.2665ZM6.86017 35.941C4.8793 39.1895 1.96559 41.862 -1.57027 43.619L4.65968 56.1565C10.5147 53.2471 15.4316 48.7752 18.8132 43.2297L6.86017 35.941ZM-4.63629 53.1734L-4.04505 54.2856L8.31693 47.7144L7.7257 46.6021L-4.63629 53.1734Z" fill="#3B945E" mask="url(#path-1-inside-1_46336_1189)"/>
</svg>
