<svg width="20" height="20" viewBox="0 0 20 20" fill="none" xmlns="http://www.w3.org/2000/svg">
<g clip-path="url(#clip0_46336_502)">
<path d="M12.5025 3.33337C12.7183 3.33337 12.9891 3.39004 13.2066 3.44337C13.965 3.62671 14.8641 3.85421 15.5025 4.33337C16.0966 4.77921 16.5583 5.55671 16.915 6.34671C17.6566 7.99254 18.1725 10.1867 18.3508 11.855C18.4358 12.6467 18.4566 13.4434 18.3041 13.9792C18.2291 14.2425 18.0666 14.4409 17.9525 14.5625C17.6041 14.9317 17.1558 15.2075 16.7125 15.4584L16.4925 15.5825C16.3476 15.6632 16.2017 15.742 16.055 15.8192L15.62 16.0442L15.0225 16.3417L14.5416 16.5784C14.3657 16.6665 14.1642 16.6895 13.9729 16.6434C13.7816 16.5972 13.6128 16.4848 13.4964 16.3261C13.38 16.1674 13.3236 15.9726 13.337 15.7763C13.3505 15.5799 13.433 15.3947 13.57 15.2534L13.2083 14.53C12.1683 14.8461 11.0869 15.0045 9.99997 15C8.8583 15 7.76914 14.8334 6.79164 14.53L6.4308 15.2517C6.56827 15.3928 6.65131 15.578 6.66519 15.7745C6.67907 15.971 6.62289 16.1661 6.50663 16.3251C6.39036 16.4841 6.22153 16.5968 6.03008 16.6432C5.83863 16.6895 5.63694 16.6666 5.4608 16.5784L5.00747 16.3534C4.50414 16.105 4.0008 15.8567 3.5108 15.5825C2.99914 15.2967 2.45664 14.9925 2.0508 14.5617C1.88885 14.398 1.76829 14.198 1.69914 13.9784C1.5458 13.4434 1.56747 12.6475 1.65164 11.855C1.82997 10.1867 2.3458 7.99254 3.0883 6.34671C3.44414 5.55671 3.9058 4.77921 4.49997 4.33337C5.1383 3.85421 6.03747 3.62671 6.7958 3.44337C7.0133 3.39004 7.2833 3.33337 7.49997 3.33337C7.61982 3.33327 7.73828 3.35902 7.84728 3.40887C7.95627 3.45871 8.05323 3.53148 8.13154 3.62221C8.20985 3.71294 8.26767 3.81949 8.30105 3.9346C8.33443 4.04971 8.34259 4.17066 8.32497 4.28921C8.87952 4.20716 9.43938 4.16621 9.99997 4.16671C10.5758 4.16671 11.1383 4.20837 11.6783 4.29004C11.6606 4.17143 11.6686 4.05039 11.7019 3.93518C11.7353 3.81997 11.7931 3.71331 11.8714 3.62248C11.9497 3.53166 12.0467 3.45881 12.1558 3.40892C12.2648 3.35902 12.3825 3.33325 12.5025 3.33337ZM13.6308 5.30254C13.5058 5.26254 13.4758 5.28004 13.4308 5.35504L13.3791 5.44837C13.2444 5.67926 13.0399 5.86143 12.7951 5.96866C12.5502 6.07589 12.2777 6.10263 12.0166 6.04504C11.3539 5.90277 10.6778 5.83181 9.99997 5.83337C9.28997 5.83337 8.6108 5.90837 7.9833 6.04504C7.72228 6.10263 7.44971 6.07589 7.20486 5.96866C6.96 5.86143 6.7555 5.67926 6.6208 5.44837L6.56914 5.35587C6.52497 5.28087 6.49497 5.26337 6.3708 5.30254C6.07414 5.39671 5.7558 5.49754 5.49997 5.66671C5.2608 5.84587 4.94164 6.29171 4.60747 7.03254C3.96914 8.44671 3.46914 10.5359 3.30914 12.0325C3.2758 12.3484 3.2583 12.6192 3.25414 12.8425V13.0875C3.25747 13.2359 3.2683 13.3534 3.2833 13.4384C3.49497 13.6459 3.75664 13.8084 4.01914 13.9575L4.58747 14.2717L4.95914 14.4675L5.26247 13.8609C5.11561 13.724 5.02308 13.5388 5.00189 13.3392C4.98069 13.1396 5.03226 12.939 5.14712 12.7744C5.26197 12.6098 5.43239 12.4921 5.62705 12.4431C5.8217 12.3941 6.02751 12.417 6.20664 12.5075C7.21997 13.0167 8.5383 13.3334 9.99997 13.3334C11.4608 13.3334 12.78 13.015 13.7933 12.5084C13.9648 12.4225 14.1606 12.3983 14.3478 12.4401C14.535 12.4818 14.7021 12.5868 14.8209 12.7374C14.9396 12.888 15.0028 13.0749 14.9998 13.2667C14.9967 13.4585 14.9276 13.6433 14.8041 13.79L14.7375 13.8609L15.0408 14.4692C15.2891 14.3409 15.5383 14.205 15.7883 14.0667C16.1133 13.8867 16.455 13.6975 16.7191 13.4392C16.7341 13.3534 16.7441 13.2359 16.7483 13.0875V12.8425C16.7415 12.5716 16.7232 12.3011 16.6933 12.0317C16.5333 10.5359 16.0333 8.44671 15.395 7.03171C15.0616 6.29171 14.7416 5.84587 14.5033 5.66671C14.2466 5.49754 13.9283 5.39671 13.6308 5.30254ZM7.29164 8.75004C7.67841 8.75004 8.04935 8.90369 8.32284 9.17718C8.59633 9.45067 8.74997 9.8216 8.74997 10.2084C8.74997 10.5951 8.59633 10.9661 8.32284 11.2396C8.04935 11.5131 7.67841 11.6667 7.29164 11.6667C6.90486 11.6667 6.53393 11.5131 6.26044 11.2396C5.98695 10.9661 5.8333 10.5951 5.8333 10.2084C5.8333 9.8216 5.98695 9.45067 6.26044 9.17718C6.53393 8.90369 6.90486 8.75004 7.29164 8.75004ZM12.7083 8.75004C13.0951 8.75004 13.466 8.90369 13.7395 9.17718C14.013 9.45067 14.1666 9.8216 14.1666 10.2084C14.1666 10.5951 14.013 10.9661 13.7395 11.2396C13.466 11.5131 13.0951 11.6667 12.7083 11.6667C12.3215 11.6667 11.9506 11.5131 11.6771 11.2396C11.4036 10.9661 11.25 10.5951 11.25 10.2084C11.25 9.8216 11.4036 9.45067 11.6771 9.17718C11.9506 8.90369 12.3215 8.75004 12.7083 8.75004Z" fill="white"/>
</g>
<defs>
<clipPath id="clip0_46336_502">
<rect width="20" height="20" fill="white"/>
</clipPath>
</defs>
</svg>
