<svg width="54" height="54" viewBox="0 0 54 54" fill="none" xmlns="http://www.w3.org/2000/svg">
<path d="M16.2738 1.88789C15.177 2.28867 14.3754 3.01641 13.8375 4.11328L13.5527 4.69336L13.5211 14.1223L13.5 23.5512L12.9727 23.4879C12.3188 23.4141 11.707 23.0977 11.1797 22.5703C10.5363 21.927 10.3043 21.3891 10.2516 20.3977C10.2094 19.6383 10.241 19.459 10.473 18.9422C10.6523 18.5625 10.9793 18.1301 11.3906 17.7398C11.9285 17.223 12.0234 17.0754 12.0234 16.759C12.0234 15.9785 11.3063 15.5988 10.6207 16.0207C9.77695 16.5375 8.91211 17.7188 8.60625 18.7629C8.38477 19.5117 8.38477 20.9883 8.60625 21.7371C9.17578 23.6883 11.1902 25.3125 13.0359 25.3125H13.5V27.8438V30.375H13.152H12.8039L12.6035 29.3625C12.498 28.8035 12.3188 28.234 12.2133 28.1074C12.0973 27.9598 11.7176 27.7594 11.3063 27.6223C10.916 27.4957 10.2832 27.232 9.89297 27.0422C9.50273 26.8418 9.07031 26.6836 8.9332 26.6836C8.79609 26.6836 8.28984 26.9367 7.79414 27.2531L6.9082 27.8227L6.4125 27.348L5.9168 26.8629L6.15938 26.4832C6.29648 26.2723 6.54961 25.8715 6.73945 25.5867C6.91875 25.2914 7.06641 24.9539 7.06641 24.8168C7.06641 24.6797 6.9082 24.2473 6.70781 23.857C6.51797 23.4668 6.31758 23.0344 6.27539 22.8867C6.03281 22.0957 5.76914 21.5262 5.61094 21.4629C5.51602 21.4102 4.97813 21.273 4.42969 21.1465L3.42773 20.9145V20.25V19.5855L4.42969 19.3535C4.97813 19.227 5.51602 19.0898 5.61094 19.0371C5.76914 18.9738 6.03281 18.4043 6.27539 17.6133C6.31758 17.4656 6.51797 17.0332 6.70781 16.643C6.9082 16.2527 7.06641 15.8203 7.06641 15.6832C7.06641 15.5355 6.80273 15.0293 6.48633 14.5441L5.9168 13.6582L6.40195 13.1625L6.88711 12.6668L7.2668 12.9094C7.47773 13.0465 7.87852 13.2996 8.16328 13.4895C8.45859 13.6688 8.79609 13.8164 8.9332 13.8164C9.07031 13.8164 9.50273 13.6582 9.89297 13.4578C10.2832 13.268 10.916 13.0043 11.3168 12.8777C12.0762 12.6246 12.3082 12.4559 12.3926 12.0973C12.6668 10.9582 12.9727 9.41836 12.9727 9.22852C12.9727 9.10195 12.8777 8.86992 12.7512 8.71172C12.5824 8.49023 12.4453 8.4375 12.0867 8.4375C11.4539 8.4375 11.2957 8.65899 11.0109 9.98789C10.8738 10.5996 10.7473 11.1164 10.7262 11.127C10.7156 11.127 10.3148 11.2957 9.84023 11.4855L8.97539 11.8336L8.04727 11.2535C6.62344 10.357 6.5918 10.357 5.18906 11.7281C4.58789 12.3293 4.01836 12.9621 3.94453 13.152C3.76523 13.5738 3.82852 13.7637 4.5457 14.8816L5.08359 15.7148L4.73555 16.5902C4.5457 17.0648 4.37695 17.4656 4.36641 17.4867C4.35586 17.5078 3.82852 17.6449 3.20625 17.782C2.58398 17.9191 1.98281 18.1195 1.87734 18.2145C1.70859 18.3621 1.6875 18.5836 1.6875 20.25C1.6875 21.9164 1.70859 22.1379 1.87734 22.2855C1.98281 22.3805 2.58398 22.5809 3.20625 22.718C3.82852 22.8551 4.35586 22.9922 4.36641 23.0133C4.37695 23.0344 4.5457 23.4352 4.73555 23.9098L5.08359 24.7746L4.51406 25.7027C4.18711 26.209 3.90234 26.7152 3.8707 26.8207C3.74414 27.1793 4.08164 27.6855 5.18906 28.7613C6.58125 30.1219 6.65508 30.1324 8.03672 29.257L8.97539 28.6664L9.84023 29.0145C10.3148 29.2043 10.7156 29.373 10.7262 29.373C10.7473 29.3836 10.8738 29.9004 11.0109 30.5121C11.3379 32.0098 11.3906 32.0625 12.5613 32.0625H13.5L13.5211 40.6793L13.5527 49.3066L13.8586 49.9395C14.2594 50.7516 15.0609 51.5531 15.873 51.9539L16.5059 52.2598H27H37.4941L38.127 51.9539C38.9391 51.5531 39.7406 50.7516 40.1414 49.9395L40.4473 49.3066L40.4789 39.8777L40.5 30.4488L41.0273 30.5121C41.6813 30.5859 42.293 30.9023 42.8203 31.4297C43.4637 32.073 43.6957 32.6109 43.7484 33.6023C43.7906 34.3617 43.759 34.541 43.527 35.0473C43.3688 35.4059 43.0102 35.8805 42.6199 36.2602C41.9766 36.9035 41.85 37.1988 42.0398 37.7051C42.1453 37.9688 42.6938 38.2008 43.0418 38.127C43.4426 38.0426 44.3918 37.1672 44.8242 36.4922C45.7734 35.0156 45.8262 32.727 44.9508 31.2188C44.1176 29.7844 42.3984 28.6875 40.9641 28.6875H40.5V26.1562V23.625H40.848H41.1961L41.3965 24.6375C41.502 25.1965 41.6813 25.766 41.7867 25.8926C41.8922 26.0402 42.2719 26.2301 42.6727 26.3672C43.0629 26.4937 43.7062 26.7574 44.0965 26.9578C44.4973 27.1582 44.9297 27.3164 45.0668 27.3164C45.2039 27.3164 45.7102 27.0633 46.2059 26.7469L47.0918 26.1773L47.5875 26.652L48.0832 27.1371L47.8406 27.5168C47.7035 27.7277 47.4504 28.1285 47.2605 28.4133C47.0812 28.7086 46.9336 29.0461 46.9336 29.1832C46.9336 29.3203 47.0918 29.7527 47.2922 30.143C47.482 30.5332 47.7457 31.166 47.8723 31.5668C48.1254 32.3262 48.2941 32.5582 48.6527 32.6426C48.7793 32.6742 49.2645 32.7797 49.7285 32.8852L50.5723 33.075V33.75V34.425L49.7285 34.6148C49.2645 34.7203 48.7793 34.8258 48.6527 34.8574C48.2941 34.9418 48.1254 35.1738 47.8723 35.9332C47.7457 36.334 47.482 36.9668 47.2922 37.357C47.0918 37.7473 46.9336 38.1797 46.9336 38.3168C46.9336 38.4539 47.1867 38.9602 47.5031 39.4559L48.0727 40.3418L47.598 40.8375L47.1129 41.3332L46.7332 41.0906C46.5223 40.9535 46.1215 40.7004 45.8367 40.5105C45.5414 40.3313 45.2039 40.1836 45.0668 40.1836C44.9297 40.1836 44.4973 40.3418 44.0965 40.5422C43.7062 40.7426 43.0629 41.0062 42.6938 41.1328C42.3141 41.2594 41.9133 41.4492 41.8184 41.5547C41.6496 41.7445 41.0273 44.2758 41.0273 44.782C41.0273 44.9086 41.1223 45.1301 41.2488 45.2883C41.4176 45.5098 41.5547 45.5625 41.9133 45.5625C42.5461 45.5625 42.7043 45.341 42.9891 44.0121C43.1262 43.4004 43.2527 42.8836 43.2738 42.873C43.2844 42.873 43.6852 42.7043 44.1598 42.5145L45.0246 42.1664L45.9633 42.757C47.3555 43.6324 47.4293 43.6219 48.8109 42.2719C49.4121 41.6707 49.9816 41.0379 50.0555 40.848C50.2348 40.4262 50.1609 40.1941 49.4438 39.1078L48.9164 38.2852L49.2645 37.4203C49.4543 36.9352 49.623 36.5344 49.6336 36.5133C49.6441 36.4922 50.1609 36.3656 50.7832 36.2285C51.416 36.0809 52.0066 35.891 52.1227 35.7961C52.2914 35.6379 52.3125 35.427 52.3125 33.75C52.3125 32.073 52.2914 31.8621 52.1227 31.7039C52.0066 31.609 51.416 31.4191 50.7832 31.2715C50.1609 31.1344 49.6441 31.0078 49.6336 30.9867C49.623 30.9656 49.4543 30.5648 49.2645 30.0902L48.9164 29.2254L49.4859 28.2973C49.8129 27.791 50.0977 27.2848 50.1293 27.1793C50.2559 26.8207 49.9184 26.3145 48.8109 25.2281C47.4293 23.8781 47.3555 23.8676 45.9633 24.743L45.0246 25.3336L44.1598 24.9855C43.6852 24.7957 43.2844 24.627 43.2738 24.627C43.2527 24.6164 43.1262 24.0996 42.9891 23.4879C42.6621 21.9902 42.6094 21.9375 41.4387 21.9375H40.5L40.4789 13.3102L40.4473 4.69336L40.1414 4.06055C39.7406 3.24844 38.9391 2.44687 38.127 2.04609L37.4941 1.74023L27.1582 1.71914C17.2863 1.69805 16.8012 1.69805 16.2738 1.88789ZM37.2305 3.64922C37.8 3.91289 38.4223 4.5668 38.6121 5.12578C38.8336 5.7375 38.8336 48.2625 38.6121 48.8742C38.4117 49.4648 37.7262 50.1609 37.1461 50.3824C36.682 50.5617 36.0492 50.5723 27 50.5723C17.9508 50.5723 17.318 50.5617 16.8539 50.3824C16.2738 50.1609 15.5883 49.4648 15.3879 48.8742C15.2613 48.5262 15.2402 44.993 15.2402 27C15.2402 3.39609 15.1875 5.09414 15.9047 4.30312C16.3477 3.81797 16.7695 3.57539 17.3496 3.46992C17.5816 3.42773 22.043 3.40664 27.2637 3.41719C36.6504 3.42773 36.7559 3.42773 37.2305 3.64922Z" fill="#3B945E"/>
<path d="M23.8359 5.27344C23.6988 5.41055 23.625 5.62148 23.625 5.90625C23.625 6.19102 23.6988 6.40195 23.8359 6.53906C24.0363 6.73945 24.184 6.75 27 6.75C29.816 6.75 29.9637 6.73945 30.1641 6.53906C30.3012 6.40195 30.375 6.19102 30.375 5.90625C30.375 5.62148 30.3012 5.41055 30.1641 5.27344C29.9637 5.07305 29.816 5.0625 27 5.0625C24.184 5.0625 24.0363 5.07305 23.8359 5.27344Z" fill="#3B945E"/>
<path d="M20.4398 24.6586C18.573 26.5254 18.5625 26.5359 18.5625 27C18.5625 27.4641 18.573 27.4746 20.4398 29.3414C22.275 31.1766 22.3172 31.2188 22.7602 31.2188C23.3508 31.2188 23.625 30.9445 23.625 30.3539C23.625 29.932 23.5723 29.8687 22.1801 28.4555L20.7352 27L22.1801 25.5445C23.5723 24.1312 23.625 24.068 23.625 23.6461C23.625 23.0555 23.3508 22.7812 22.7602 22.7812C22.3172 22.7812 22.275 22.8234 20.4398 24.6586Z" fill="#3B945E"/>
<path d="M27.232 22.9711C27.0105 23.1926 25.3125 29.7949 25.3125 30.4277C25.3125 30.934 25.6184 31.2188 26.1562 31.2188C26.4199 31.2188 26.652 31.1449 26.768 31.0289C26.9895 30.8074 28.6875 24.2051 28.6875 23.5723C28.6875 23.066 28.3816 22.7812 27.8438 22.7812C27.5801 22.7812 27.348 22.8551 27.232 22.9711Z" fill="#3B945E"/>
<path d="M30.5859 22.9922C30.4383 23.1398 30.375 23.3402 30.375 23.6461C30.375 24.068 30.4277 24.1312 31.8199 25.5445L33.2648 27L31.8199 28.4555C30.4277 29.8687 30.375 29.932 30.375 30.3539C30.375 30.9445 30.6492 31.2188 31.2398 31.2188C31.6828 31.2188 31.725 31.1766 33.5602 29.3414C35.427 27.4746 35.4375 27.4641 35.4375 27C35.4375 26.5359 35.427 26.5254 33.5602 24.6586C31.725 22.8234 31.6828 22.7812 31.2398 22.7812C30.934 22.7812 30.7336 22.8445 30.5859 22.9922Z" fill="#3B945E"/>
<path d="M44.0859 8.64844C43.9277 8.80664 43.875 8.99648 43.875 9.37617C43.875 9.99844 44.107 10.2305 44.7293 10.2305C45.2355 10.2305 45.5625 9.85078 45.5625 9.2707C45.5625 8.72227 45.2777 8.4375 44.7188 8.4375C44.434 8.4375 44.223 8.51133 44.0859 8.64844Z" fill="#3B945E"/>
<path d="M44.0859 12.0234C43.9277 12.1816 43.875 12.3715 43.875 12.7512C43.875 13.3734 44.107 13.6055 44.7293 13.6055C45.2355 13.6055 45.5625 13.2258 45.5625 12.6457C45.5625 12.0973 45.2777 11.8125 44.7188 11.8125C44.434 11.8125 44.223 11.8863 44.0859 12.0234Z" fill="#3B945E"/>
<path d="M44.0859 15.3984C43.9277 15.5566 43.875 15.7465 43.875 16.1262C43.875 16.7484 44.107 16.9805 44.7293 16.9805C45.2355 16.9805 45.5625 16.6008 45.5625 16.0207C45.5625 15.4723 45.2777 15.1875 44.7188 15.1875C44.434 15.1875 44.223 15.2613 44.0859 15.3984Z" fill="#3B945E"/>
<path d="M8.71172 37.1355C8.47969 37.3148 8.4375 37.4414 8.4375 37.8527C8.4375 38.4011 8.60625 38.6437 9.09141 38.7597C9.65039 38.8968 10.1145 38.4644 10.125 37.7894C10.125 37.4414 10.0723 37.3043 9.85078 37.1355C9.69258 37.009 9.43945 36.914 9.28125 36.914C9.12305 36.914 8.86992 37.009 8.71172 37.1355Z" fill="#3B945E"/>
<path d="M8.71172 40.5105C8.47969 40.6898 8.4375 40.8164 8.4375 41.2277C8.4375 41.7761 8.60625 42.0187 9.09141 42.1347C9.65039 42.2718 10.1145 41.8394 10.125 41.1644C10.125 40.8164 10.0723 40.6793 9.85078 40.5105C9.69258 40.384 9.43945 40.289 9.28125 40.289C9.12305 40.289 8.86992 40.384 8.71172 40.5105Z" fill="#3B945E"/>
<path d="M8.71172 43.8855C8.47969 44.0648 8.4375 44.1914 8.4375 44.6027C8.4375 45.1511 8.60625 45.3937 9.09141 45.5097C9.65039 45.6468 10.1145 45.2144 10.125 44.5394C10.125 44.1914 10.0723 44.0543 9.85078 43.8855C9.69258 43.759 9.43945 43.664 9.28125 43.664C9.12305 43.664 8.86992 43.759 8.71172 43.8855Z" fill="#3B945E"/>
</svg>
