<svg width="55" height="54" viewBox="0 0 55 54" fill="none" xmlns="http://www.w3.org/2000/svg">
<g clip-path="url(#clip0_46336_827)">
<path d="M26.7415 0.253124C25.2005 0.748829 23.9446 1.80352 23.2691 3.17461C22.6148 4.50351 22.5725 4.89375 22.5725 9.82969V14.2383L14.1609 14.2594L5.7386 14.291L4.91537 14.6812C3.48 15.3668 2.48791 16.6535 2.2135 18.1828C2.05519 19.0477 2.06574 20.8723 2.23461 21.1992C2.31904 21.368 2.50902 21.4945 2.76232 21.5578C3.0895 21.6422 3.20559 21.6211 3.44834 21.4418C3.7333 21.2309 3.7333 21.2098 3.78608 19.8176C3.83885 18.4781 3.85995 18.3621 4.18713 17.6977C4.56709 16.9277 5.02092 16.4953 5.86525 16.1051L6.37185 15.873H14.182C23.2164 15.873 22.6886 15.8203 23.7441 16.8645C24.7362 17.8664 24.6834 17.3496 24.6834 26.1141V33.7289L23.4485 33.7711C22.0237 33.8238 21.3588 34.0453 20.5884 34.752C20.1662 35.1316 19.5118 36.2496 19.5118 36.5871C19.5118 36.682 19.4063 36.8297 19.2796 36.9035C19.1424 36.9879 18.3403 37.5891 17.4854 38.2535C16.6411 38.9074 15.9129 39.4453 15.8812 39.4453C15.8495 39.4453 15.8179 38.9496 15.8179 38.3484C15.8179 37.4309 15.7862 37.2094 15.6173 37.009L15.4168 36.7559L10.7835 36.7031L6.16077 36.6504L5.62251 36.3656C4.98925 36.0281 4.37711 35.3848 4.06048 34.7098C3.8494 34.2457 3.83885 34.0664 3.80718 29.6789C3.77552 25.2598 3.76497 25.1227 3.56444 24.9328C3.27947 24.6797 2.5829 24.6691 2.34015 24.9223C2.16073 25.091 2.15017 25.4707 2.11851 29.4363C2.0974 32.0836 2.12907 34.0031 2.20295 34.3617C2.54068 36.2707 4.1027 37.8738 5.98135 38.2746C6.32964 38.3484 7.95498 38.3906 10.3297 38.3906H14.1292V39.9727C14.1292 41.523 14.1397 41.5758 14.393 41.8184C14.8996 42.3352 15.1424 42.2402 17.3166 40.5527C18.4036 39.709 19.3219 39.0234 19.343 39.0234C19.3746 39.0234 19.4063 41.1961 19.4274 43.8539L19.4591 48.6738L19.7546 49.275C20.314 50.4141 21.3166 51.1523 22.5831 51.3633C22.9525 51.416 24.314 51.4688 25.6122 51.4688H27.9552V52.5023C27.9552 53.7363 28.1029 54 28.7784 54C29.1267 54 29.3906 53.8418 30.8154 52.7344C32.2613 51.6059 32.4829 51.4688 32.8629 51.4688C34.7415 51.4582 36.0925 50.6988 36.7891 49.275C37.0424 48.7477 37.0846 48.5367 37.1162 47.3555C37.1585 46.1531 37.1373 46.016 36.9474 45.7734C36.7891 45.573 36.6413 45.5098 36.293 45.5098C35.5964 45.5098 35.4487 45.7734 35.4487 46.9758C35.4487 48.157 35.3326 48.5895 34.8999 49.0324C34.3616 49.5914 34.0239 49.7074 32.8523 49.7602L31.7864 49.8023L30.7204 50.6355L29.6439 51.4688V50.8992C29.6439 50.4879 29.5805 50.2664 29.4222 50.0555L29.2111 49.7812H26.1821C24.5145 49.7812 22.9736 49.7391 22.752 49.6863C22.1398 49.5387 21.6438 49.1484 21.3588 48.5789L21.095 48.0516V42.5566V37.0512L21.3377 36.5871C21.4749 36.334 21.7915 35.9754 22.0343 35.8066L22.4881 35.4902H28.2718H34.0555L34.5199 35.8066C34.7838 35.9965 35.0687 36.3234 35.2165 36.5977C35.4381 37.0406 35.4487 37.1883 35.4487 39.3715V41.6707L35.7125 41.9238C36.0503 42.2719 36.5358 42.2719 36.884 41.9238L37.1479 41.6602L37.1162 39.0973C37.0846 36.5977 37.0846 36.5344 36.8102 35.9543C36.4197 35.1211 35.8603 34.5516 35.0476 34.1508L34.3405 33.8027L30.3615 33.7711L26.3721 33.7395V31.7883C26.3721 30.723 26.4037 29.8477 26.4565 29.8477C26.4987 29.8582 26.8153 29.9215 27.1636 30.0059C27.6702 30.1324 28.7679 30.1641 32.5779 30.1641H37.3484V32.2102C37.3484 34.1086 37.359 34.2668 37.5701 34.5305C37.7389 34.7414 37.8761 34.8047 38.1928 34.8047C38.5516 34.8047 38.8999 34.5727 41.6334 32.4844L44.6836 30.1641H46.214C47.9026 30.1641 48.7364 30.0164 49.623 29.5734C51.0267 28.8668 52.0715 27.675 52.6309 26.1352L52.9159 25.3652L52.9475 15.4301C52.9792 4.50351 52.9898 4.63008 52.3354 3.31172C51.6177 1.8457 50.3406 0.738281 48.8314 0.263672C48.0715 0.0210915 47.8288 0 46.1084 0H44.2192L44.0081 0.27422C43.7232 0.632812 43.7232 0.949219 44.0081 1.30781C44.2192 1.57148 44.2509 1.58203 45.4541 1.58203C47.09 1.59258 47.9765 1.71914 48.6836 2.03555C49.4858 2.40469 50.0557 2.88984 50.5412 3.60703C51.2905 4.73555 51.28 4.51406 51.28 15.0715C51.28 21.6211 51.2483 24.627 51.1639 25.0172C50.8895 26.3039 49.9501 27.5063 48.7575 28.0863C48.0609 28.4238 48.0504 28.4238 46.0556 28.4766C44.4409 28.5187 43.987 28.5609 43.7865 28.698C43.6387 28.793 42.5305 29.6367 41.3063 30.5648L39.0899 32.2629L39.0371 30.5859C38.9949 29.1621 38.9527 28.8773 38.7944 28.7191C38.6255 28.5398 38.2033 28.5293 33.0423 28.4766L27.4803 28.4238L26.9314 28.1707L26.3826 27.9281L26.351 22.8445L26.3193 17.7609L25.9288 16.9699C25.6544 16.4215 25.3377 15.9891 24.8945 15.5672L24.2507 14.9555L24.2823 9.97734C24.314 5.15742 24.3245 4.98867 24.5462 4.45078C25.0422 3.24844 25.9288 2.39414 27.2058 1.87734C27.7863 1.64531 27.8602 1.63477 33.8128 1.61367C37.1268 1.59258 39.9342 1.56094 40.0503 1.5293C40.3247 1.46601 40.5569 0.938671 40.4725 0.590626C40.3142 -0.0316429 40.6519 0 33.7811 0C27.5225 0.0105476 27.4803 0.0105476 26.7415 0.253124Z" fill="#3B945E"/>
<path d="M38.9738 5.80077C38.2033 5.96952 37.665 6.65507 37.665 7.45663C37.665 8.02617 37.3906 9.01757 37.074 9.6082C36.9157 9.88241 36.2508 10.7262 35.5859 11.4855C34.4249 12.8039 34.3616 12.8566 34.1505 12.709C33.9711 12.5824 33.475 12.5508 31.512 12.5508H29.1056L28.8523 12.8144L28.5884 13.0676V18.0773C28.5884 21.5262 28.6201 23.1715 28.7045 23.3402C28.9051 23.7832 29.19 23.8359 31.6386 23.8359C33.8022 23.8359 33.9605 23.8254 34.2138 23.625L34.4882 23.4035L34.9104 23.625C35.8919 24.1207 36.4197 24.1629 41.1479 24.1312L45.5596 24.0996L46.0134 23.7832C46.2562 23.6039 46.5622 23.2769 46.6783 23.0449C46.8894 22.6441 46.9 22.4437 46.9316 18.4781C46.9527 15.7676 46.9211 14.1961 46.8472 13.9219C46.71 13.4051 46.1823 12.7828 45.7285 12.593C45.5068 12.498 44.6308 12.4242 43.2271 12.382L41.0635 12.3082L41.2746 11.7176C41.5807 10.8738 41.6545 9.02812 41.4223 8.13163C41.1902 7.20351 40.6413 6.22265 40.2508 6.00116C39.8498 5.77968 39.3854 5.70585 38.9738 5.80077ZM39.8287 9.65038C39.8287 10.7789 39.8181 10.8422 39.3854 11.8547C38.8788 13.0148 38.826 13.5 39.1426 13.8164C39.3432 14.0168 39.4909 14.0273 42.0767 14.0273C44.367 14.0273 44.8314 14.0484 45.0319 14.1961L45.2641 14.3543V18.2039C45.2641 20.6613 45.2219 22.1273 45.1585 22.2644C45.053 22.4543 44.8947 22.4648 40.8946 22.4648C36.3036 22.4648 36.1136 22.4437 35.1637 21.7898L34.6571 21.4418L34.6254 18.3094L34.6043 15.1875L36.3036 13.268C37.2429 12.2133 38.1717 11.0953 38.3827 10.7684C38.8366 10.0617 39.206 9.02812 39.3115 8.17382L39.3854 7.54101L39.607 8.01562C39.7864 8.40585 39.8287 8.70116 39.8287 9.65038ZM32.9157 18.1934V22.1484H31.5964H30.2771V18.1934V14.2383H31.5964H32.9157V18.1934Z" fill="#3B945E"/>
<path d="M12.8204 20.598C12.6199 20.7984 12.5355 21.1148 12.3349 22.391L12.0816 23.9414H10.3191H8.54599L8.33491 24.2156C8.0605 24.5636 8.04994 25.0066 8.3138 25.323C8.50377 25.5656 8.57765 25.5761 10.1713 25.6078C11.6489 25.6394 11.8072 25.6605 11.765 25.8187C11.7334 25.9136 11.6806 26.2301 11.6489 26.5254C11.5223 27.4957 11.6489 27.4219 10.0552 27.4219C8.68319 27.4219 8.61987 27.4324 8.37712 27.6855C8.02883 28.023 8.02883 28.5082 8.37712 28.8457C8.61987 29.0988 8.69375 29.1094 9.90748 29.1094C11.0051 29.1094 11.174 29.1304 11.174 29.2781C11.174 29.373 11.079 30.0164 10.9629 30.7125C10.7307 32.0625 10.7518 32.2418 11.2268 32.5476C11.5223 32.7375 12.0183 32.6742 12.2611 32.4C12.3561 32.2945 12.5144 31.6617 12.641 30.9023C12.7677 30.1746 12.8943 29.4785 12.9154 29.3414C12.9682 29.1199 13.021 29.1094 13.8548 29.1094H14.7307L14.583 29.9742C14.5091 30.4594 14.4141 31.1554 14.3825 31.5351C14.3086 32.3156 14.4352 32.5265 15.0579 32.6531C15.3323 32.7058 15.4379 32.6636 15.6912 32.4211C15.955 32.1469 16.0078 31.9676 16.1767 30.8496C16.2717 30.1535 16.3878 29.4785 16.4194 29.3414C16.4722 29.1094 16.5039 29.1094 18.1609 29.1094C19.0896 29.1094 19.9234 29.0672 20.029 29.0039C20.1345 28.9511 20.2823 28.7613 20.3561 28.582C20.5145 28.2129 20.3561 27.6961 20.029 27.5273C19.9234 27.464 19.1424 27.4219 18.2875 27.4219H16.736L16.8099 26.9683C16.8521 26.7258 16.9155 26.325 16.9471 26.0719L17.0105 25.6289H18.4247H19.8495L20.1662 25.3125C20.43 25.0383 20.4722 24.9328 20.4195 24.648C20.3034 24.0363 20.0712 23.9414 18.6041 23.9414C17.2954 23.9414 17.2954 23.9414 17.3482 23.6988C17.4959 23.0449 17.7176 21.5261 17.7176 21.1781C17.7176 20.2078 16.3033 20.0601 16.0817 21.0094C16.0184 21.2941 15.6067 23.7726 15.6067 23.8781C15.6067 23.9097 15.2057 23.9414 14.7096 23.9414C14.2136 23.9414 13.8125 23.9097 13.8125 23.857C13.8125 23.8148 13.9075 23.2347 14.0236 22.5703C14.2875 21.0304 14.2875 20.925 13.9708 20.6191C13.6437 20.2816 13.1476 20.2711 12.8204 20.598ZM15.2796 25.7554C15.2796 25.8293 15.2162 26.2195 15.1529 26.6308L15.0263 27.3691L14.0975 27.4008C13.3904 27.4219 13.1898 27.4008 13.2321 27.2953C13.2532 27.2215 13.327 26.8101 13.3904 26.3883L13.517 25.6289H14.4036C15.0474 25.6289 15.2901 25.6605 15.2796 25.7554Z" fill="#3B945E"/>
<path d="M25.7494 38.9285C24.3034 39.3715 23.4908 40.7953 23.7335 42.4934C23.9129 43.7379 24.6517 44.7609 26.0765 45.7418C26.9737 46.3535 28.0396 46.9336 28.2824 46.9336C28.5251 46.9336 29.5594 46.3746 30.4671 45.7418C31.8814 44.7715 32.6202 43.759 32.8101 42.525C33.0529 41.0273 32.3774 39.6563 31.132 39.0973C30.446 38.7914 29.3272 38.7914 28.7257 39.1078L28.2718 39.3398L27.8285 39.1184C27.3114 38.8547 26.2876 38.7598 25.7494 38.9285ZM27.438 41.0273C28.1241 41.7445 28.4407 41.7445 29.0739 41.059C29.4644 40.6266 29.5805 40.5527 29.9288 40.5527C30.6782 40.5527 31.1848 41.175 31.1531 42.0398C31.132 42.5988 30.8259 43.1895 30.3088 43.6852C29.8127 44.1598 28.504 45.0352 28.2718 45.0352C28.0502 45.0352 26.7309 44.1598 26.2349 43.6852C25.686 43.1578 25.4011 42.5672 25.4011 41.9766C25.4011 41.1117 25.8971 40.5105 26.6254 40.5C26.847 40.5 27.0475 40.6266 27.438 41.0273Z" fill="#3B945E"/>
</g>
<defs>
<clipPath id="clip0_46336_827">
<rect width="54.0375" height="54" fill="white" transform="translate(0.514282)"/>
</clipPath>
</defs>
</svg>
