<svg width="55" height="55" viewBox="0 0 55 55" fill="none" xmlns="http://www.w3.org/2000/svg">
<g clip-path="url(#clip0_46336_777)">
<path d="M26.3216 0.326805C25.1193 0.727589 24.3916 1.31821 23.2525 2.84751C21.3119 5.44204 19.9197 8.81704 19.4978 11.8967L19.3712 12.8249L19.0443 12.5717C18.5908 12.2342 18.0107 12.0022 17.5994 12.0022C16.6396 12.0022 15.2263 13.1518 14.6357 14.3963L14.2982 15.1135L14.2666 20.5135C14.2349 25.8292 14.2455 25.9241 14.4564 26.135C14.7095 26.3881 15.3634 26.4198 15.6798 26.1983C15.8697 26.0506 15.8802 25.8397 15.933 20.8932C15.9857 15.7674 15.9857 15.7463 16.2283 15.2506C16.5236 14.66 17.3146 13.9006 17.6416 13.9006C17.958 13.9006 18.9072 14.892 19.0865 15.4299C19.2025 15.7569 19.2447 16.7905 19.2763 20.0389L19.3185 24.2155L15.3423 28.9932C12.6634 32.21 11.2818 33.9502 11.113 34.3299C10.9021 34.7729 10.8494 35.0788 10.8494 35.6799C10.8494 37.0194 11.5033 38.0846 12.6845 38.6858L13.3279 39.0022H27.7349H42.1419L42.6798 38.7491C43.4392 38.3905 43.9349 37.9264 44.3041 37.1881C44.5783 36.6292 44.6205 36.4288 44.6205 35.6905C44.6205 35.0155 44.5677 34.7202 44.3673 34.2983C44.2091 33.9608 42.6166 31.9674 40.138 28.9932L36.1619 24.2155L36.2041 19.9862C36.2357 15.7991 36.2462 15.7358 36.4888 15.2506C36.7736 14.66 37.5646 13.9006 37.8916 13.9006C38.208 13.9006 39.1572 14.892 39.3365 15.4299C39.4525 15.7569 39.5052 16.9487 39.5474 20.9459C39.6107 25.8397 39.6212 26.0506 39.8111 26.1983C40.1275 26.4198 40.7814 26.3881 41.0345 26.135C41.2455 25.9241 41.256 25.8292 41.2244 20.5135L41.1927 15.1135L40.8552 14.3963C40.2646 13.1518 38.8513 12.0022 37.8916 12.0022C37.4697 12.0022 36.8896 12.2342 36.4255 12.5928L36.0775 12.8565V12.5717C36.0775 11.9916 35.5396 9.68188 35.1283 8.46899C34.5482 6.80259 33.831 5.33657 32.8185 3.80727C31.6478 2.0354 30.7724 1.13892 29.7705 0.643211C29.0216 0.263523 28.9056 0.242432 27.8615 0.221336C27.1548 0.200245 26.5853 0.242432 26.3216 0.326805ZM28.9583 2.23579C29.7705 2.58384 31.3525 4.61938 32.4283 6.72876C33.599 9.02798 34.2107 11.3377 34.39 14.0905C34.4427 14.9448 34.4955 20.5135 34.4955 26.4725V37.3147H27.7455H20.9955V34.9944C20.9955 32.8112 20.9849 32.6635 20.7845 32.4631C20.6474 32.326 20.4365 32.2522 20.1517 32.2522C19.8669 32.2522 19.656 32.326 19.5189 32.4631C19.3185 32.6635 19.308 32.8112 19.308 34.9944V37.3147H16.8822C15.5533 37.3147 14.2349 37.262 13.9501 37.1987C13.2224 37.051 12.7583 36.5553 12.6951 35.8698C12.6634 35.5956 12.6845 35.2581 12.7373 35.1209C12.79 34.9944 14.2771 33.1487 16.0384 31.0288L19.2552 27.1686L19.308 28.719C19.3501 30.0901 19.3818 30.2799 19.5611 30.417C19.8669 30.6385 20.5314 30.6069 20.774 30.3643C20.9744 30.1639 20.9744 29.8581 21.0166 21.6842C21.0693 13.4577 21.0693 13.1729 21.3013 11.8967C21.6072 10.1987 22.2189 8.33188 22.9466 6.84478C23.9275 4.85141 25.3935 2.82642 26.2162 2.35181C27.0072 1.8772 28.0091 1.84555 28.9583 2.23579ZM39.558 31.1448C41.2455 33.1698 42.6798 34.9522 42.7431 35.0999C42.7959 35.2475 42.8275 35.5956 42.7959 35.8698C42.7326 36.5553 42.2685 37.051 41.5408 37.1987C41.256 37.262 39.9376 37.3147 38.6087 37.3147H36.183V32.2311C36.183 27.8436 36.2041 27.1686 36.3306 27.2952C36.415 27.3795 37.8705 29.1092 39.558 31.1448Z" fill="#3B945E"/>
<path d="M26.1424 8.82759C25.3619 9.08071 24.6236 9.55532 24.033 10.1881C23.0732 11.2112 22.683 12.2342 22.683 13.6897C22.683 15.1452 23.0732 16.1682 24.033 17.1913C25.0349 18.267 26.2056 18.7522 27.756 18.7522C29.2748 18.7522 30.4666 18.2459 31.458 17.1913C32.4177 16.1682 32.808 15.1452 32.808 13.6897C32.808 12.2342 32.4177 11.2112 31.458 10.1881C30.8568 9.54478 30.1185 9.08071 29.317 8.82759C28.4627 8.56392 26.9756 8.56392 26.1424 8.82759ZM29.201 10.7366C29.9498 11.1163 30.4138 11.612 30.783 12.403C31.0045 12.8987 31.0361 13.078 30.9939 13.8374C30.9201 15.1663 30.3295 16.0838 29.1904 16.6428C27.5873 17.4233 25.6994 16.8221 24.8451 15.2612C24.497 14.6178 24.3705 13.4999 24.5709 12.7721C24.7502 12.1288 25.3092 11.3588 25.8892 10.9686C26.5326 10.5362 26.8806 10.4413 27.8088 10.4307C28.4416 10.4202 28.6525 10.4729 29.201 10.7366Z" fill="#3B945E"/>
<path d="M14.583 40.9112C13.8341 41.2065 13.0642 41.9764 12.7794 42.7463C12.4314 43.685 12.4736 44.5815 12.9271 45.5201C13.465 46.6381 14.6568 48.3467 15.3318 48.9373C15.5955 49.1799 16.2705 49.1799 16.5341 48.9373C17.2091 48.3467 18.4009 46.6381 18.9388 45.5201C19.2447 44.8768 19.308 44.6342 19.308 44.0436C19.308 42.6092 18.4958 41.3752 17.2513 40.9112C16.4708 40.6158 15.3529 40.6158 14.583 40.9112ZM16.7556 42.6936C17.4939 43.1471 17.7048 44.0014 17.2935 44.8346C16.9982 45.4041 16.0384 46.8069 15.933 46.8069C15.8275 46.8069 14.8677 45.4041 14.5724 44.8346C13.9923 43.685 14.6884 42.4826 15.933 42.4826C16.2177 42.4826 16.5447 42.567 16.7556 42.6936Z" fill="#3B945E"/>
<path d="M26.1423 40.8901C24.613 41.3858 23.3052 42.7252 22.8517 44.2651C22.6091 45.0877 22.6302 46.3534 22.9044 47.1444C23.358 48.4944 24.5076 50.5088 25.9947 52.5444C27.1232 54.0842 27.2287 54.1897 27.7455 54.1897C28.2623 54.1897 28.3677 54.0842 29.4962 52.5444C30.9833 50.5088 32.133 48.4944 32.5865 47.1444C32.8607 46.3534 32.8818 45.0877 32.6392 44.2651C32.1857 42.7042 30.8673 41.3752 29.3169 40.8901C28.4626 40.6264 26.9755 40.6264 26.1423 40.8901ZM29.3064 42.8518C29.9392 43.1893 30.3716 43.6428 30.7197 44.3073C30.9095 44.6659 30.9623 44.9295 30.9623 45.6467C30.9623 46.5116 30.9412 46.5854 30.4455 47.5874C29.8865 48.7053 27.9142 51.7639 27.7455 51.7639C27.5767 51.7639 25.6044 48.7053 25.0455 47.5874C24.2861 46.0475 24.2755 45.0139 25.0349 43.8854C25.383 43.3581 26.1634 42.7674 26.733 42.5881C26.9123 42.5354 27.4396 42.5038 27.9037 42.5143C28.5998 42.5459 28.8423 42.5987 29.3064 42.8518Z" fill="#3B945E"/>
<path d="M38.208 40.9112C37.4591 41.2065 36.6892 41.9764 36.4044 42.7463C36.0564 43.685 36.0986 44.5815 36.5521 45.5201C37.09 46.6381 38.2818 48.3467 38.9568 48.9373C39.2205 49.1799 39.8955 49.1799 40.1591 48.9373C40.8341 48.3467 42.0259 46.6381 42.5638 45.5201C42.8697 44.8768 42.933 44.6342 42.933 44.0436C42.933 42.6092 42.1208 41.3752 40.8763 40.9112C40.0958 40.6158 38.9779 40.6158 38.208 40.9112ZM40.3806 42.6936C41.1189 43.1471 41.3298 44.0014 40.9185 44.8346C40.6232 45.4041 39.6634 46.8069 39.558 46.8069C39.4525 46.8069 38.4927 45.4041 38.1974 44.8346C37.6173 43.685 38.3134 42.4826 39.558 42.4826C39.8427 42.4826 40.1697 42.567 40.3806 42.6936Z" fill="#3B945E"/>
</g>
<defs>
<clipPath id="clip0_46336_777">
<rect width="54" height="54" fill="white" transform="translate(0.745483 0.189697)"/>
</clipPath>
</defs>
</svg>
