<svg width="16" height="16" viewBox="0 0 16 16" fill="none" xmlns="http://www.w3.org/2000/svg">
<path d="M14.8155 0.00163822C14.6179 0.017643 14.4239 0.0692518 14.2412 0.154451H14.2387C14.0633 0.231886 13.2293 0.622484 11.9613 1.21455L7.41748 3.34503C4.15703 4.87316 0.951991 6.37799 0.951991 6.37799L0.990154 6.36154C0.990154 6.36154 0.76918 6.4424 0.538358 6.61852C0.395758 6.71954 0.27305 6.85172 0.17766 7.00706C0.0644027 7.19208 -0.0266951 7.47509 0.00715884 7.7677C0.0625562 8.26246 0.350622 8.55917 0.557439 8.72295C0.766718 8.88878 0.966148 8.96622 0.966148 8.96622H0.971073L3.97669 10.0935C4.11149 10.5752 4.89259 13.4341 5.08032 14.0927C5.19112 14.486 5.29884 14.732 5.43364 14.9198C5.49888 15.0157 5.57521 15.0959 5.66692 15.1603C5.7146 15.1912 5.76544 15.2156 5.81834 15.2329L5.78756 15.2247C5.7968 15.2274 5.80418 15.2357 5.81095 15.2384C5.83557 15.2459 5.85219 15.2487 5.88359 15.2542C6.35939 15.4145 6.74163 15.0856 6.74163 15.0856L6.76317 15.0664L8.53773 13.2676L11.512 15.8079L11.5797 15.8401C12.1995 16.143 12.8273 15.9744 13.1591 15.677C13.4933 15.3775 13.6232 14.9945 13.6232 14.9945L13.6448 14.9328L15.9431 1.82443C16.0084 1.50099 16.025 1.1981 15.953 0.904127C15.8787 0.606604 15.7072 0.350715 15.4722 0.186658C15.2749 0.0531115 15.0461 -0.0113485 14.8155 0.00163822ZM14.7533 1.40642C14.7509 1.44959 14.7582 1.4448 14.741 1.52771V1.53525L12.4642 14.5072C12.4543 14.5257 12.4377 14.5662 12.3922 14.6066C12.3441 14.6491 12.306 14.6758 12.1059 14.5874L8.46818 11.4825L6.27075 13.7123L6.7324 10.4299L12.6759 4.26259C12.9209 4.00904 12.839 3.95559 12.839 3.95559C12.8563 3.64448 12.4691 3.86445 12.4691 3.86445L4.97445 9.03337L4.97199 9.01967L1.37978 7.67313V7.67039L1.37055 7.66833C1.37685 7.66601 1.38301 7.66326 1.38901 7.66011L1.40871 7.64915L1.42779 7.64161C1.42779 7.64161 4.6353 6.13678 7.89574 4.60865C9.52812 3.84321 11.1728 3.07229 12.4377 2.47749C13.1879 2.12595 13.9388 1.77646 14.6905 1.42904C14.741 1.40711 14.717 1.40642 14.7533 1.40642Z" fill="white"/>
</svg>
